{"title":"Greed.1924.HQTV.(noLogo).720p.x264.AC3.[FrOnkY]","uid":10035434,"size":4341319033,"categoryP":"video","categoryS":"hd___movies","magnet":"?xt=urn:btih:222b7c26ca4e2da5a3832be48ab1e6d2385f0d4f&amp;dn=Greed.1924.HQTV.%28noLogo%29.720p.x264.AC3.%5BFrOnkY%5D&amp;tr=udp%3A%2F%2Ftracker.openbittorrent.com%3A80&amp;tr=udp%3A%2F%2Fopen.demonii.com%3A1337&amp;tr=udp%3A%2F%2Ftracker.coppersurfer.tk%3A6969&amp;tr=udp%3A%2F%2Fexodus.desync.com%3A6969","seeders":3,"leechers":1,"uploader":"HDmEntEs","files":-1,"time":1398392295,"description":"&quot;The Film of Films&quot;\n\n\nGreed.(Avaricia).1924.HQTV.noLogo.720p.x264.AC3.[FrOnkY].mkv\n\nFormat                                   : Matroska\nFormat version                           : Version 4 / Version 2\nFile size                                : 4.04 GiB\nDuration                                 : 3h 59mn\nOverall bit rate                         : 2 416 Kbps\nWriting application                      : mkvmerge v6.4.1 ('Omega Point') built on Sep 16 2013 22:05:10\nWriting library                          : libebml v1.3.0 + libmatroska v1.4.1\nAttachment                               : Yes / Yes / Yes / Yes / Yes / Yes\n\nVideo\nID                                       : 1\nFormat                                   : AVC\nFormat/Info                              : Advanced Video Codec\nFormat profile                           : &lt;a class=&quot;__cf_email__&quot; href=&quot;/cdn-cgi/l/email-protection&quot; data-cfemail=&quot;6b23020c032b275f455a&quot;&gt;[email&amp;#160;protected]&lt;/a&gt;&lt;script cf-hash='f9e31' type=&quot;text/javascript&quot;&gt;\n/* &lt;![CDATA[ */!function(){try{var t=&quot;currentScript&quot;in document?document.currentScript:function(){for(var t=document.getElementsByTagName(&quot;script&quot;),e=t.length;e--;)if(t[e].getAttribute(&quot;cf-hash&quot;))return t[e]}();if(t&amp;&amp;t.previousSibling){var e,r,n,i,c=t.previousSibling,a=c.getAttribute(&quot;data-cfemail&quot;);if(a){for(e=&quot;&quot;,r=parseInt(a.substr(0,2),16),n=2;a.length-n;n+=2)i=parseInt(a.substr(n,2),16)^r,e+=String.fromCharCode(i);e=document.createTextNode(e),c.parentNode.replaceChild(e,c)}}}catch(u){}}();/* ]]&gt; */&lt;/script&gt;\nFormat settings, CABAC                   : Yes\nFormat settings, ReFrames                : 12 frames\nCodec ID                                 : V_MPEG4/ISO/AVC\nDuration                                 : 3h 59mn\nBit rate                                 : 2 222 Kbps\nWidth                                    : 960 pixels\nHeight                                   : 720 pixels\nDisplay aspect ratio                     : 4:3\nFrame rate mode                          : Constant\nFrame rate                               : 23.976 fps\nColor space                              : YUV\nChroma subsampling                       : 4:2:0\nBit depth                                : 8 bits\nScan type                                : Progressive\nBits/(Pixel*Frame)                       : 0.134\nStream size                              : 3.64 GiB (90%)\nWriting library                          : x264 core 133 r2334 a3ac64b\nLanguage                                 : English\nDefault                                  : Yes\nForced                                   : No\n\nAudio\nID                                       : 2\nFormat                                   : AC-3\nFormat/Info                              : Audio Coding 3\nMode extension                           : CM (complete main)\nFormat settings, Endianness              : Big\nCodec ID                                 : A_AC3\nDuration                                 : 3h 59mn\nBit rate mode                            : Constant\nBit rate                                 : 192 Kbps\nChannel(s)                               : 2 channels\nChannel positions                        : Front: L R\nSampling rate                            : 48.0 KHz\nBit depth                                : 16 bits\nStream size                              : 329 MiB (8%)\nLanguage                                 : English\nDefault                                  : Yes\nForced                                   : No\n\nText #1\nID                                       : 3\nFormat                                   : UTF-8\nCodec ID                                 : S_TEXT/UTF8\nCodec ID/Info                            : UTF-8 Plain Text\nLanguage                                 : Spanish\nDefault                                  : Yes\nForced                                   : No\n\nText #2\nID                                       : 4\nFormat                                   : UTF-8\nCodec ID                                 : S_TEXT/UTF8\nCodec ID/Info                            : UTF-8 Plain Text\nLanguage                                 : French\nDefault                                  : No\nForced                                   : No\n\nMenu\n00:00:00.000                             : en:Chapter 01\n00:03:21.772                             : en:Chapter 02\n00:11:41.455                             : en:Chapter 03\n00:25:04.040                             : en:Chapter 04\n00:40:40.663                             : en:Chapter 05\n00:54:04.764                             : en:Chapter 06\n01:10:07.442                             : en:Chapter 07\n01:23:35.328                             : en:Chapter 08\n01:50:01.576                             : en:Chapter 09\n02:10:46.111                             : en:Chapter 10\n02:26:41.318                             : en:Chapter 11\n02:42:17.836                             : en:Chapter 12\n02:56:46.495                             : en:Chapter 13\n03:11:56.037                             : en:Chapter 14\n03:26:59.710                             : en:Chapter 15\n03:37:08.031                             : en:Chapter 16\n03:44:20.301                             : en:Chapter 17\n\n\nbefore... now...\n &lt;a href=&quot;\nhttp://box.jisko.net/i/41c57525.png&quot; rel=&quot;nofollow&quot; target=&quot;_NEW&quot;&gt;\nhttp://box.jisko.net/i/41c57525.png&lt;/a&gt; &lt;a href=&quot;\nhttp://box.jisko.net/i/27015d8a.png&quot; rel=&quot;nofollow&quot; target=&quot;_NEW&quot;&gt;\nhttp://box.jisko.net/i/27015d8a.png&lt;/a&gt;\n &lt;a href=&quot;\nhttp://box.jisko.net/i/ebe7bb64.png&quot; rel=&quot;nofollow&quot; target=&quot;_NEW&quot;&gt;\nhttp://box.jisko.net/i/ebe7bb64.png&lt;/a&gt;\n &lt;a href=&quot;\nhttp://box.jisko.net/i/90fd88c7.png&quot; rel=&quot;nofollow&quot; target=&quot;_NEW&quot;&gt;\nhttp://box.jisko.net/i/90fd88c7.png&lt;/a&gt;\n &lt;a href=&quot;\nhttp://box.jisko.net/i/9f797657.png&quot; rel=&quot;nofollow&quot; target=&quot;_NEW&quot;&gt;\nhttp://box.jisko.net/i/9f797657.png&lt;/a&gt;\n &lt;a href=&quot;\nhttp://box.jisko.net/i/8a2365ae.png&quot; rel=&quot;nofollow&quot; target=&quot;_NEW&quot;&gt;\nhttp://box.jisko.net/i/8a2365ae.png&lt;/a&gt;","torrent":{"xt":"urn:btih:222b7c26ca4e2da5a3832be48ab1e6d2385f0d4f","amp;dn":"Greed.1924.HQTV.%28noLogo%29.720p.x264.AC3.%5BFrOnkY%5D","amp;tr":["udp%3A%2F%2Ftracker.openbittorrent.com%3A80","udp%3A%2F%2Fopen.demonii.com%3A1337","udp%3A%2F%2Ftracker.coppersurfer.tk%3A6969","udp%3A%2F%2Fexodus.desync.com%3A6969"],"infoHash":"222b7c26ca4e2da5a3832be48ab1e6d2385f0d4f","infoHashBuffer":{"type":"Buffer","data":[34,43,124,38,202,78,45,165,163,131,43,228,138,177,230,210,56,95,13,79]},"announce":[],"urlList":[]}}